<svg width="86" height="86" viewBox="0 0 86 86" fill="none" xmlns="http://www.w3.org/2000/svg">
<path d="M86.0049 43C86.0049 66.7486 66.7511 86 43.0024 86C19.2538 86 0 66.7486 0 43C0 19.2522 19.2538 0 43.0024 0C66.7511 0 86.0049 19.2522 86.0049 43Z" fill="#5444BF"/>
<mask id="mask0_203_9433" style="mask-type:alpha" maskUnits="userSpaceOnUse" x="0" y="0" width="87" height="86">
<path d="M86.0049 43C86.0049 66.7486 66.7511 86 43.0024 86C19.2538 86 0 66.7486 0 43C0 19.2522 19.2538 0 43.0024 0C66.7511 0 86.0049 19.2522 86.0049 43Z" fill="#B044BF"/>
</mask>
<g mask="url(#mask0_203_9433)">
<path d="M-24.2371 122.275C-27.1508 122.282 -53.4738 93.6718 -52.7785 90.5387C-52.0666 87.4114 -49.3019 79.0758 -52.6957 79.5567C-56.0813 80.0443 -55.0466 87.9751 -61.2796 86.7028C-67.5293 85.4305 -75.956 80.6204 -82.7105 81.8041C-89.4568 82.9878 -81.7917 90.273 -63.5809 98.5714C-59.7152 100.027 -41.9347 141.733 -27.515 142.802C-13.0787 143.878 3.69178 114.44 3.69178 114.44L-18.898 117.085C-18.898 117.085 -21.3233 122.269 -24.2371 122.275Z" fill="#B145C1"/>
<path d="M41.8106 81.108C37.0261 84.4761 14.3038 114.565 12.9545 120.469C12.5986 121.746 12.0606 122.967 11.3404 124.084C6.91188 134.672 -3.98159 165.508 15.6365 173.768C26.4554 178.31 72.2144 171.043 84.7633 159.897C82.5283 155.989 79.5567 148.467 76.138 133.962C65.3605 88.2325 46.6033 77.7298 41.8106 81.108Z" fill="#AA7DDF"/>
<path d="M96.5259 137.083C96.5259 137.083 100.044 82.2843 48.1015 75.3443C5.94334 69.7072 -13.0291 105.422 -13.0291 105.422C-13.0291 105.422 -3.24487 125.562 4.3292 128.781L12.9462 120.469C13.6912 117.233 20.8432 106.751 27.9454 97.3745C33.806 89.6249 39.65 82.6336 41.8105 81.1014C46.595 77.7291 65.3605 88.2285 76.138 133.958C79.5566 148.468 82.5283 155.988 84.7632 159.897C86.5181 158.585 87.6687 156.627 87.9667 154.456C88.3144 147.132 90.3425 134.937 92.4864 130.45L96.5259 137.083Z" fill="#AA7DDF"/>
<path d="M35.9168 58.1548C35.9747 58.7284 35.3291 75.7953 35.3291 75.7953C35.3291 75.7953 21.0667 92.075 32.7879 92.8299C44.1697 93.56 52.5218 77.5974 52.5218 77.5974L52.6046 52.7255L35.9168 58.1548Z" fill="#B145C1"/>
<mask id="mask1_203_9433" style="mask-type:alpha" maskUnits="userSpaceOnUse" x="28" y="52" width="25" height="41">
<path d="M32.7961 92.8308C21.0749 92.0759 35.329 75.7953 35.329 75.7953C35.329 75.7953 35.9747 58.7293 35.9167 58.1556L52.6045 52.7255L52.5301 77.5998C52.5301 77.5998 44.1696 93.5609 32.7961 92.8308Z" fill="white"/>
</mask>
<g mask="url(#mask1_203_9433)">
<path d="M28.1688 74.1431C37.6385 72.9486 51.1891 66.5036 51.1891 66.5036L32.0677 60.7399L28.1688 74.1431Z" fill="#8A2C9E"/>
</g>
<path d="M42.6454 33.2873C45.5125 33.2873 47.8367 30.9631 47.8367 28.096C47.8367 25.2289 45.5125 22.9047 42.6454 22.9047C39.7783 22.9047 37.4541 25.2289 37.4541 28.096C37.4541 30.9631 39.7783 33.2873 42.6454 33.2873Z" fill="#B044BF"/>
<path d="M27.7549 48.3879C27.7632 50.5948 29.0049 52.617 30.975 53.6194V55.4802C30.9915 60.2854 33.5742 64.7206 37.7379 67.1095C41.9098 69.4976 47.0337 69.4835 51.1891 67.0673C55.3445 64.651 57.894 60.2051 57.8774 55.3999L57.8691 53.7452C60.1537 52.8968 61.6603 50.714 61.6521 48.2795C61.6521 45.8492 60.1207 43.6771 57.8361 42.8427L57.8278 39.77C55.2783 38.1426 51.7602 33.2257 45.8831 34.0634C40.7344 34.8043 36.1072 36.4524 30.9171 36.7661L30.9419 43.1324C28.9801 44.1489 27.7549 46.1778 27.7549 48.3879Z" fill="#B145C1"/>
<mask id="mask2_203_9433" style="mask-type:alpha" maskUnits="userSpaceOnUse" x="27" y="33" width="35" height="36">
<path d="M30.9171 36.7669C36.1072 36.4532 40.7343 34.8009 45.8831 34.0601C50.353 33.4227 53.4571 36.1179 55.8163 38.16C56.553 38.804 57.2235 39.3827 57.8278 39.7717L57.8361 42.8427C60.1207 43.6779 61.6521 45.8508 61.6521 48.2811C61.6521 50.7156 60.1537 52.896 57.8691 53.7444L57.8774 55.4C57.8939 60.2051 55.3445 64.6469 51.1891 67.0632C47.042 69.4802 41.9098 69.5018 37.7379 67.1128C33.5742 64.7247 30.9915 60.2879 30.975 55.4827L30.9667 53.6202C29.0049 52.6186 27.7549 50.5956 27.7549 48.3887C27.7549 46.1786 28.9801 44.1489 30.9419 43.1324L30.9171 36.7669Z" fill="white"/>
</mask>
<g mask="url(#mask2_203_9433)">
<g opacity="0.27">
<path d="M38.4713 55.5918C38.4741 53.6146 36.3714 52.0086 33.7748 52.0049C31.1782 52.0012 29.0709 53.6011 29.0681 55.5784C29.0653 57.5557 31.168 59.1616 33.7646 59.1653C36.3612 59.169 38.4684 57.5691 38.4713 55.5918Z" fill="#9E2C2E"/>
</g>
<g opacity="0.27">
<path d="M60.6741 55.6233C60.677 53.6461 58.5743 52.0401 55.9777 52.0364C53.3811 52.0327 51.2738 53.6326 51.271 55.6099C51.2682 57.5872 53.3709 59.1931 55.9675 59.1968C58.5641 59.2005 60.6713 57.6006 60.6741 55.6233Z" fill="#9E2C2E"/>
</g>
<path d="M39.3519 44.7478L38.9961 44.7217C38.1737 44.6613 37.458 45.2792 37.3977 46.1016L37.165 49.2728C37.1047 50.0953 37.7225 50.8109 38.5449 50.8713L38.9008 50.8974C39.7232 50.9577 40.4389 50.3399 40.4993 49.5174L40.7319 46.3463C40.7923 45.5238 40.1744 44.8081 39.3519 44.7478Z" fill="#0B2658"/>
<path d="M51.6279 44.706C52.5549 44.7739 53.242 45.5752 53.1758 46.4957L52.9688 49.3109C52.9026 50.2314 52.0996 50.9234 51.1808 50.8563C50.262 50.7885 49.5667 49.9872 49.6329 49.0667L49.8398 46.2498C49.9061 45.3302 50.709 44.639 51.6279 44.706Z" fill="#0B2658"/>
<path d="M39.0457 40.7749C35.5691 41.5183 36.3721 43.4412 38.5739 43.1192C40.7758 42.7964 41.3138 40.2907 39.0457 40.7749Z" fill="#0B2658"/>
<path d="M51.8265 40.6392C55.1541 41.8816 54.3512 43.5438 52.2238 42.9031C50.0882 42.2624 49.6495 39.8279 51.8265 40.6392Z" fill="#0B2658"/>
<path d="M46.0651 51.1833C46.1148 52.3132 45.1298 51.9035 43.9378 51.9515C42.7458 51.9987 41.7939 52.4854 41.7442 51.3563C41.7608 50.2066 42.6796 49.2695 43.8219 49.2232C44.9725 49.1776 45.9575 50.0385 46.0651 51.1833Z" fill="#8A2C9E"/>
</g>
<path fill-rule="evenodd" clip-rule="evenodd" d="M33.2183 50.0551C31.331 48.1818 30.7681 45.355 31.7779 42.8949C32.7878 40.4356 35.1718 38.8223 37.8372 38.8223C41.4629 38.8223 44.4097 41.7501 44.4262 45.3782C44.4262 48.0378 42.8369 50.4383 40.3867 51.4623C37.9283 52.4879 35.0974 51.93 33.2183 50.0551ZM37.8372 40.1864C40.7096 40.1765 43.0521 42.5001 43.0687 45.3765C43.0687 48.253 40.7427 50.5956 37.8704 50.608C34.9898 50.6171 32.6554 48.287 32.6471 45.4096C32.6306 42.5332 34.9566 40.1955 37.8372 40.1864Z" fill="#0B2658"/>
<path fill-rule="evenodd" clip-rule="evenodd" d="M51.214 51.9258C47.5884 51.9374 44.6331 49.008 44.6166 45.3782C44.6083 41.7476 47.5469 38.7925 51.1725 38.7809C54.8064 38.7809 57.7533 41.707 57.7615 45.3368C57.7781 48.9665 54.8479 51.9142 51.214 51.9258ZM51.1725 40.1451C54.0532 40.1351 56.3957 42.4578 56.404 45.3352C56.404 48.21 54.0863 50.5534 51.2057 50.5667C48.3333 50.5758 45.9907 48.2456 45.9824 45.3683C45.9742 42.4909 48.3002 40.1542 51.1725 40.1451Z" fill="#0B2658"/>
<path d="M-27.3495 295.902C-1.94532 315.801 41.7773 302.176 41.7773 302.176C41.7773 302.176 56.1639 150.698 39.5423 109.493L32.647 75.0975C32.647 75.0975 20.7686 76.302 14.7342 79.243C-12.8057 183.634 -18.2937 254.439 -27.3495 295.902Z" fill="#F3CF57"/>
<path d="M25.0234 308.832C36.5956 317.531 90.6073 303.642 90.6073 303.642C90.6073 303.642 76.1379 133.957 78.8944 86.4454C70.3105 82.1096 61.5113 78.1992 52.5383 74.74L37.4565 106.824C37.4565 106.824 37.4895 233.43 25.0234 308.832Z" fill="#F3CF57"/>
<path d="M42.1664 85.6234L37.3074 108.127L42.5388 128.798L46.3549 124.081L50.1378 108.069L46.2142 84.3064L42.1664 85.6234Z" fill="#B044BF"/>
<path d="M37.9116 80.6775L40.6267 85.6648C41.2475 86.8609 42.4643 87.6274 43.8136 87.6647L44.8815 87.6779C46.2059 87.6771 47.4393 86.9611 48.0932 85.803L50.6178 81.5194L43.9046 80.8298L37.9116 80.6775Z" fill="#B044BF"/>
<path d="M30.2052 75.4087C30.2052 75.4087 34.2612 70.4471 35.4035 70.4761C36.7942 74.8964 39.8404 78.6064 43.9047 80.8298L38.218 88.5992C38.218 88.5992 27.9703 80.3877 30.2052 75.4087Z" fill="#AA7DDF"/>
<path d="M57.8278 76.1099C57.8278 76.1099 53.9869 70.9488 52.8446 70.9198C51.2718 75.2606 48.0601 78.8151 43.9047 80.8299L49.2438 88.8799C49.2438 88.8799 59.8392 81.1982 57.8278 76.1099Z" fill="#AA7DDF"/>
<path d="M32.3574 72.5199C32.3574 72.5199 40.9993 123.427 43.9793 128.8L38.8553 135.221L23.5914 103.199L30.4369 97.8826L21.7702 95.1113L27.6309 76.6206C29.0381 75.0653 30.6191 73.6928 32.3574 72.5199Z" fill="#F3CF57"/>
<path d="M56.1806 72.3411L38.8553 135.221L64.2099 105.674L57.7119 98.1848L66.4696 96.8322L60.9402 77.7298C60.6008 75.1331 58.7218 73.0016 56.1806 72.3411Z" fill="#F3CF57"/>
<path d="M26.9024 38.333C25.1723 39.6351 24.4356 41.8726 25.0482 43.947C25.6607 46.0222 27.49 47.5023 29.6505 47.657C31.8027 47.816 33.8308 46.6198 34.7413 44.6589C35.6518 42.6946 35.2463 40.3735 33.7232 38.833C35.4366 38.2461 36.9265 37.1403 37.9944 35.6677C40.5853 35.0998 43.1514 34.4566 45.883 34.0667C50.5847 33.3929 53.78 36.4101 56.1722 38.4729C54.9057 40.9074 55.7583 43.9056 58.1091 45.3136C60.46 46.7258 63.5062 46.0636 65.0541 43.8038C66.6103 41.5431 66.1385 38.4655 63.978 36.7769C66.1385 35.7778 67.5292 33.6239 67.554 31.2466C67.405 28.1987 65.1866 25.6434 62.1901 25.064L62.2231 24.4961C62.2231 21.4789 60.6586 18.6777 58.0926 17.0909C55.5265 15.509 52.3231 15.3609 49.6245 16.7093C49.8149 16.1679 49.9225 15.596 49.9225 15.0207C49.9308 13.1582 48.9375 11.4356 47.3233 10.5077C45.7092 9.58057 43.7226 9.58392 42.1167 10.5234C40.5026 11.4621 39.5257 13.1921 39.5423 15.0505C39.5506 15.5314 39.6251 16.0123 39.7658 16.4701C39.7658 16.4701 39.6499 16.4519 39.5837 16.4519C37.0094 16.4552 34.5592 17.6058 32.912 19.59C31.2482 17.6323 28.4006 17.1819 26.2153 18.5378C24.0382 19.8887 23.1691 22.6378 24.1873 24.9994C22.4903 27.0365 21.8199 29.7284 22.3497 32.3177C22.8711 34.9111 24.5515 37.1212 26.9024 38.333Z" fill="#FAD257"/>
</g>
</svg>
